# xmcd
#
# Track frame offsets:
# 150
# 17555
# 36034
# 49327
# 61752
# 75311
# 90822
# 103925
# 117282
# 132021
# 146211
# 158601
# 170712
# 186567
# 205716
# 217798
#
# Disc length: 3110 seconds
#
#
# Revision: 0
# Processed by: cddbd v1.5.1PL2 Copyright (c) Steve Scherf et al.
# Submitted via: FreeRIP 2.945 
#
DISCID=cf0c2410
DTITLE=Tanya Tucker - Live at Billy Bob's Texas
DYEAR=2005
DGENRE=Country
TTITLE0=Some Kind Of Trouble
TTITLE1=I'll Come Back As Another Woman
TTITLE2=It Won't Be Me
TTITLE3=Strong Enough To Bend
TTITLE4=San Antonio Stroll
TTITLE5=Hangin' In
TTITLE6=Lizzie and The Rainman
TTITLE7=The Jamestown Ferry
TTITLE8=Whats Your Mama's Name
TTITLE9=Blood Red And Going Down
TTITLE10=Would You Lay With Me (In A Field Of Stone)
TTITLE11=Walking Shoes
TTITLE12=Down To My Last Teardrop
TTITLE13=Two Sparows In A Hurricane
TTITLE14=It's A Little Too Late
TTITLE15=Delta Dawn
EXTD=
EXTT0=
EXTT1=
EXTT2=
EXTT3=
EXTT4=
EXTT5=
EXTT6=
EXTT7=
EXTT8=
EXTT9=
EXTT10=
EXTT11=
EXTT12=
EXTT13=
EXTT14=
EXTT15=
PLAYORDER=
